<?xml version="1.0" standalone="no"?>
<!DOCTYPE svg PUBLIC "-//W3C//DTD SVG 20010904//EN"
 "http://www.w3.org/TR/2001/REC-SVG-20010904/DTD/svg10.dtd">
<svg version="1.0" xmlns="http://www.w3.org/2000/svg"
 width="900.000000pt" height="500.000000pt" viewBox="0 0 900.000000 500.000000"
 preserveAspectRatio="xMidYMid meet">

<g transform="translate(0.000000,500.000000) scale(0.100000,-0.100000)"
fill="#000000" stroke="none">
<path d="M7595 4169 c-520 -49 -910 -457 -976 -1019 -24 -215 0 -490 61 -678
138 -421 491 -702 920 -730 232 -15 417 15 586 98 346 168 565 502 613 933 71
633 -218 1166 -725 1337 -155 53 -326 74 -479 59z m263 -215 c126 -25 212 -73
312 -173 206 -205 300 -495 287 -891 -7 -238 -45 -399 -135 -575 -38 -74 -63
-107 -142 -185 -104 -104 -173 -146 -290 -177 -81 -21 -272 -23 -350 -4 -226
56 -406 233 -501 492 -137 375 -104 880 77 1181 165 272 438 394 742 332z"/>
<path d="M190 4090 l0 -40 70 0 c123 0 110 127 110 -1098 0 -1059 0 -1059 -21
-1078 -15 -13 -40 -20 -90 -22 l-69 -4 0 -34 0 -34 350 0 350 0 0 34 0 34 -71
4 c-121 7 -109 -115 -109 1095 0 1052 1 1073 34 1095 6 4 41 8 79 8 l67 0 0
40 0 40 -350 0 -350 0 0 -40z"/>
<path d="M1110 4091 l0 -41 60 0 c80 0 108 -14 120 -61 7 -24 9 -393 8 -1063
l-3 -1025 -22 -23 c-18 -18 -37 -23 -93 -26 l-70 -4 0 -34 0 -34 513 0 c288 0
543 5 582 10 329 48 546 199 627 438 28 82 35 247 14 336 -46 195 -212 366
-413 426 -41 13 -58 30 -29 30 34 0 180 85 230 134 93 91 126 185 126 361 0
186 -37 281 -155 401 -54 55 -89 80 -155 112 -175 83 -257 93 -847 99 l-493 5
0 -41z m933 -176 c281 -42 426 -215 389 -465 -19 -134 -85 -227 -201 -285 -88
-44 -165 -55 -393 -55 l-208 0 0 394 0 394 28 10 c15 6 36 13 47 15 47 11 248
6 338 -8z m-3 -1040 c162 -24 261 -67 348 -149 93 -88 131 -197 118 -344 -16
-189 -144 -325 -357 -377 -72 -18 -350 -32 -422 -21 -27 4 -59 18 -77 32 l-30
26 0 424 0 424 163 0 c90 0 204 -6 257 -15z"/>
<path d="M3030 4091 l0 -39 61 -4 c73 -5 85 -17 94 -92 3 -28 5 -502 3 -1053
-3 -1000 -3 -1002 -24 -1023 -14 -14 -39 -23 -77 -27 -57 -6 -57 -6 -57 -39
l0 -34 795 0 c437 0 795 2 795 3 0 2 20 99 45 216 25 116 45 214 45 216 0 3
-20 5 -45 5 -44 0 -45 -1 -70 -51 -37 -72 -97 -133 -158 -160 -52 -24 -55 -24
-470 -27 -311 -2 -422 0 -433 9 -12 10 -14 84 -14 460 l0 449 353 -1 c193 0
373 -4 400 -8 65 -11 94 -40 108 -113 l12 -58 38 0 39 0 0 275 0 275 -40 0
c-26 0 -40 -4 -40 -13 0 -7 -7 -37 -15 -65 -27 -89 -16 -87 -470 -87 l-390 0
-3 375 c-1 206 0 390 3 408 l6 33 437 -3 c396 -3 440 -5 469 -21 38 -20 60
-57 69 -116 7 -41 7 -41 50 -41 l44 0 -2 193 -3 192 -777 3 -778 2 0 -39z"/>
<path d="M4800 4091 l0 -41 54 0 c38 0 61 -6 77 -19 l24 -19 0 -1061 c0 -1206
10 -1089 -94 -1098 l-61 -6 0 -33 0 -34 330 0 330 0 0 34 0 34 -65 4 c-108 7
-100 -36 -103 523 l-3 485 112 0 111 0 187 -187 c260 -261 382 -431 535 -745
l71 -148 208 0 207 0 0 33 c0 27 -6 36 -33 50 -39 21 -79 81 -197 287 -104
184 -157 263 -283 419 -101 126 -210 242 -300 318 l-47 41 67 16 c147 37 284
114 363 203 117 132 157 336 105 532 -57 216 -231 362 -503 422 -90 20 -132
22 -594 26 l-498 5 0 -41z m953 -187 c198 -39 308 -153 323 -335 12 -137 -25
-248 -111 -338 -109 -114 -248 -160 -507 -168 l-168 -6 0 411 0 412 26 16 c51
34 288 38 437 8z"/>
<path d="M5029 1477 c-41 -52 -43 -57 -17 -57 14 0 44 19 73 45 l50 44 -40 1
c-33 0 -44 -5 -66 -33z"/>
<path d="M510 1385 c-108 -34 -172 -132 -172 -262 1 -192 147 -300 345 -254
48 11 49 13 42 44 -6 23 -10 25 -33 16 -35 -14 -130 -13 -167 1 -43 16 -93 67
-106 109 -26 77 -7 193 39 244 44 49 126 69 220 53 26 -5 42 -4 42 2 0 6 3 17
6 25 13 34 -130 48 -216 22z"/>
<path d="M1563 1393 l-53 -4 0 -258 0 -258 63 -6 c159 -16 287 35 339 137 26
50 35 163 18 226 -15 56 -88 130 -145 147 -48 15 -151 22 -222 16z m194 -68
c21 -9 46 -23 57 -33 30 -27 56 -93 56 -147 0 -146 -77 -224 -222 -225 l-68 0
0 210 0 210 70 0 c41 0 86 -6 107 -15z"/>
<path d="M2548 1393 l-48 -4 0 -258 0 -258 59 -7 c72 -8 182 8 239 35 129 63
172 273 80 400 -53 73 -173 107 -330 92z m208 -72 c74 -34 111 -109 101 -207
-13 -130 -86 -193 -224 -194 l-63 0 0 210 0 210 73 0 c48 0 85 -6 113 -19z"/>
<path d="M3235 1391 l-50 -6 -3 -256 -2 -256 65 -7 c77 -8 183 7 235 34 49 25
104 89 118 139 7 21 12 70 12 108 0 187 -132 273 -375 244z m186 -62 c79 -27
121 -95 120 -195 -1 -139 -78 -213 -223 -214 l-68 0 0 210 0 210 69 0 c37 0
83 -5 102 -11z"/>
<path d="M6047 1386 c-66 -24 -111 -61 -142 -117 -27 -49 -30 -63 -30 -144 0
-68 5 -99 19 -128 24 -49 65 -89 112 -112 48 -23 156 -31 212 -16 36 10 43 16
40 34 -2 17 -9 21 -28 20 -167 -14 -241 17 -276 114 -38 109 1 236 88 281 44
23 91 27 187 19 16 -1 26 5 32 20 7 20 4 24 -29 33 -51 14 -139 12 -185 -4z"/>
<path d="M6441 1374 c-91 -46 -134 -127 -133 -255 0 -163 110 -271 260 -256
100 10 177 79 203 182 16 65 7 181 -19 231 -59 114 -193 157 -311 98z m188
-51 c77 -56 105 -207 57 -309 -26 -57 -52 -79 -109 -95 -108 -29 -201 69 -200
211 1 137 75 226 182 216 24 -2 55 -12 70 -23z"/>
<path d="M820 1130 l0 -260 30 0 30 0 0 260 0 260 -30 0 -30 0 0 -260z"/>
<path d="M1002 1197 c3 -183 5 -196 29 -242 35 -69 91 -98 176 -92 76 6 120
31 153 89 24 41 25 52 28 241 l4 197 -36 0 -35 0 -3 -199 c-3 -227 -9 -243
-85 -270 -55 -20 -108 0 -138 49 -18 31 -20 55 -23 228 l-4 192 -35 0 -35 0 4
-193z"/>
<path d="M2155 1378 c-3 -7 -43 -124 -90 -260 l-85 -248 34 0 c34 0 35 1 61
80 l27 80 97 0 97 0 25 -77 c25 -77 26 -78 62 -81 l36 -3 -88 258 -89 258 -41
3 c-27 2 -43 -1 -46 -10z m83 -176 c21 -62 36 -115 33 -117 -2 -3 -38 -5 -79
-5 -66 0 -74 2 -70 18 17 62 73 229 76 223 1 -3 19 -57 40 -119z"/>
<path d="M3700 1130 l0 -260 150 0 150 0 0 25 0 25 -115 0 -115 0 0 100 0 100
100 0 100 0 0 25 0 25 -100 0 -100 0 0 85 0 85 110 0 110 0 0 25 0 25 -145 0
-145 0 0 -260z"/>
<path d="M4276 1348 c-3 -24 -10 -115 -16 -203 -6 -88 -13 -186 -16 -217 l-6
-58 30 0 c37 0 39 6 47 190 3 74 8 162 12 195 l5 59 24 -79 c12 -44 45 -143
72 -220 44 -127 51 -140 74 -143 24 -3 28 4 82 155 31 87 67 189 80 228 l23
70 7 -145 c3 -80 9 -182 12 -227 l7 -83 31 0 31 0 -16 258 c-10 141 -18 258
-18 260 -1 2 -20 2 -43 0 l-42 -3 -28 -75 c-25 -67 -103 -291 -115 -330 -2 -8
-36 81 -75 198 l-72 212 -42 0 c-43 0 -43 0 -48 -42z"/>
<path d="M4880 1130 l0 -260 150 0 150 0 0 25 0 25 -115 0 -115 0 0 100 0 100
100 0 100 0 0 25 0 25 -100 0 -100 0 0 85 0 85 105 0 105 0 0 25 0 25 -140 0
-140 0 0 -260z"/>
<path d="M5240 1384 c0 -3 32 -59 71 -125 43 -73 68 -127 65 -136 -4 -9 -36
-66 -73 -127 -36 -61 -68 -114 -70 -118 -2 -5 13 -8 34 -8 l38 0 59 111 58
112 65 -112 65 -111 39 0 39 0 -80 131 c-45 73 -79 137 -77 143 3 6 37 62 76
124 39 62 71 115 71 117 0 3 -17 5 -37 5 -38 0 -38 -1 -97 -106 l-58 -105 -60
106 c-57 102 -60 105 -93 105 -19 0 -35 -3 -35 -6z"/>
<path d="M5710 1130 l0 -260 35 0 35 0 0 260 0 260 -35 0 -35 0 0 -260z"/>
<path d="M7565 1377 c-126 -49 -192 -153 -183 -288 11 -149 120 -248 273 -249
163 0 274 112 275 276 0 159 -118 275 -279 273 -31 0 -70 -6 -86 -12z m191
-43 c41 -20 91 -70 113 -113 75 -148 -21 -328 -185 -347 -143 -17 -266 95
-266 240 0 175 182 293 338 220z"/>
<path d="M7548 1264 c-5 -4 -8 -74 -8 -156 l0 -148 30 0 30 0 0 60 0 60 45 0
c59 0 85 -25 85 -80 0 -36 3 -40 25 -40 22 0 25 4 25 38 0 40 -32 102 -52 102
-7 0 -4 6 7 12 50 27 60 80 21 124 -21 26 -30 28 -112 32 -49 2 -92 1 -96 -4z
m166 -50 c23 -22 20 -60 -6 -78 -12 -9 -42 -16 -65 -16 l-43 0 0 55 0 55 49 0
c32 0 55 -6 65 -16z"/>
</g>
</svg>
